#tb 0: 1/25
#media_type 0: video
#codec_id 0: rawvideo
#dimensions 0: 256x2048
#sar 0: 0/1
0,          0,          0,        1,  1048576, 0xa2eb0c23
0,          1,          1,        1,  1048576, 0x2149e4f9
0,          2,          2,        1,  1048576, 0xbdfacc9b
0,          3,          3,        1,  1048576, 0x64040c52
0,          4,          4,        1,  1048576, 0x9fec31b4
